<svg xmlns="http://www.w3.org/2000/svg" viewBox="0 0 352.1 153.64"><defs><style>.cls-1{fill:#ffd233;}.cls-2{fill:#e6e6e6;}</style></defs><g id="レイヤー_2" data-name="レイヤー 2"><g id="text"><rect class="cls-1" x="150.96" y="131.79" width="201.14" height="21.86"/><rect class="cls-1" x="50.09" y="87.86" width="100.57" height="43.71"/><rect class="cls-1" x="0.23" width="50.29" height="87.43"/><path d="M7,139.72V43.13c0-23.8,11.8-36,32.6-36s32.6,12.2,32.6,36v96.59a12.2,12.2,0,0,1-24.4,0V43.53c0-9.4-2.8-13.2-8.2-13.2s-8.2,3.8-8.2,13.2v96.19a12.2,12.2,0,0,1-24.4,0Z"/><path d="M92.6,139.72V20.53a12.2,12.2,0,0,1,24.4,0V139.72a12.2,12.2,0,0,1-24.4,0Z"/><path d="M194.4,20.93a11.7,11.7,0,0,1-11.8,11.8h-8.4v107a12.2,12.2,0,1,1-24.4,0v-107h-8.4a11.7,11.7,0,0,1-11.8-11.8,11.7,11.7,0,0,1,11.8-11.8h41.2A11.7,11.7,0,0,1,194.4,20.93Z"/><path d="M268.6,111.53v28.19a12,12,0,1,1-24,0V116.53c0-13.2-4-18.6-11.8-18.6h-3.2v41.79c0,6.8-5,12.2-11.8,12.2s-11.8-5.4-11.8-12.2V24.93c0-9.6,5-15.8,16.4-15.8h14.2c23,0,31.6,14.8,31.6,35.2v16c0,10.4-2.6,20-10.6,26.4C266.2,91.53,268.6,100.53,268.6,111.53Zm-23.6-66c0-11-3.8-15.4-10.4-15.4h-5v46.8h4.2c7.6,0,11.2-5.8,11.2-19.2Z"/><path d="M286.2,117.53V43.13c0-23.8,11.8-36,32.6-36s32.6,12.2,32.6,36v74.4c0,23.8-11.81,36-32.6,36S286.2,141.33,286.2,117.53Zm40.79-.41V43.53c0-9.4-2.79-13.2-8.19-13.2s-8.2,3.8-8.2,13.2v73.59c0,9.41,2.8,13.21,8.2,13.21S327,126.53,327,117.12Z"/><path class="cls-2" d="M0,133.72V37.13c0-23.8,11.8-36,32.6-36s32.6,12.2,32.6,36v96.59a12.2,12.2,0,0,1-24.4,0V37.53c0-9.4-2.8-13.2-8.2-13.2s-8.2,3.8-8.2,13.2v96.19a12.12,12.12,0,0,1-12.2,12.2A12.12,12.12,0,0,1,0,133.72Z"/><path class="cls-2" d="M85.6,133.72V14.53a12.2,12.2,0,0,1,24.4,0V133.72a12.2,12.2,0,0,1-24.4,0Z"/><path class="cls-2" d="M187.4,14.93a11.7,11.7,0,0,1-11.8,11.8h-8.4v107a12.2,12.2,0,1,1-24.4,0v-107h-8.4a11.7,11.7,0,0,1-11.8-11.8,11.7,11.7,0,0,1,11.8-11.8h41.2A11.7,11.7,0,0,1,187.4,14.93Z"/><path class="cls-2" d="M261.6,105.53v28.19a12,12,0,1,1-24,0V110.53c0-13.2-4-18.6-11.8-18.6h-3.2v41.79c0,6.8-5,12.2-11.8,12.2s-11.8-5.4-11.8-12.2V18.93c0-9.6,5-15.8,16.4-15.8h14.2c23,0,31.6,14.8,31.6,35.2v16c0,10.4-2.6,20-10.6,26.4C259.2,85.53,261.6,94.53,261.6,105.53Zm-23.6-66c0-11-3.8-15.4-10.4-15.4h-5v46.8h4.2c7.6,0,11.2-5.8,11.2-19.2Z"/><path class="cls-2" d="M279.2,111.53V37.13c0-23.8,11.8-36,32.6-36s32.6,12.2,32.6,36v74.4c0,23.8-11.81,36-32.6,36S279.2,135.33,279.2,111.53Zm40.79-.41V37.53c0-9.4-2.79-13.2-8.19-13.2s-8.2,3.8-8.2,13.2v73.59c0,9.41,2.8,13.21,8.2,13.21S320,120.53,320,111.12Z"/></g></g></svg>