<svg xmlns="http://www.w3.org/2000/svg" viewBox="0 0 145.41 25.73"><defs><style>.cls-1{fill:#ec912e;}</style></defs><g id="レイヤー_2" data-name="レイヤー 2"><g id="レイヤー_1-2" data-name="レイヤー 1"><path d="M0,13.23A6.73,6.73,0,0,1,6.86,6.29C10.8,6.29,13,8.91,13,12.58a11.45,11.45,0,0,1-.13,1.57H3.1c.36,2.45,2.11,3.64,4.57,3.64a7.19,7.19,0,0,0,3.72-1.11l1,1.95a9.68,9.68,0,0,1-5.18,1.56C3.21,20.19,0,17.63,0,13.23Zm3.19-1.3h7C10,9.77,8.83,8.69,6.94,8.69A3.68,3.68,0,0,0,3.19,11.93Z"/><path d="M16.23,6.61h2.56l.24,2h.11a6.62,6.62,0,0,1,4.78-2.32c3,0,4.45,1.94,4.45,5.37v8.21H25.24v-7.8c0-2.14-.67-3.11-2.48-3.11-1.3,0-2.19.62-3.4,1.86v9.05H16.23Z"/><path d="M31.35,22.19a3.37,3.37,0,0,1,2.1-2.78V19.3a2.53,2.53,0,0,1-1.35-2.21,3.26,3.26,0,0,1,1.59-2.49v-.1A4.17,4.17,0,0,1,32,11.07C32,8,34.53,6.29,37.45,6.29a6.44,6.44,0,0,1,2.08.32H45V9H41.9a3.39,3.39,0,0,1,.86,2.19c0,2.94-2.34,4.5-5.31,4.5a6.53,6.53,0,0,1-2-.37,1.38,1.38,0,0,0-.81,1.24c0,.86.87,1.24,2.51,1.24h2.7c3.43,0,5.21.92,5.21,3.24,0,2.62-3,4.7-7.64,4.7C33.75,25.73,31.35,24.56,31.35,22.19ZM42,21.54c0-1-.89-1.29-2.68-1.29h-2.1a8.56,8.56,0,0,1-2-.19c-.94.54-1.29,1.1-1.29,1.72,0,1.19,1.37,1.89,3.83,1.89S42,22.68,42,21.54ZM40,11.07a2.51,2.51,0,1,0-5,0,2.51,2.51,0,1,0,5,0Z"/><path d="M53.35,9.07H47.6V6.61h8.85V19.87h-3.1Zm-.89-7a2.22,2.22,0,0,1,4.43,0,2.22,2.22,0,0,1-4.43,0Z"/><path d="M63.21,6.61h2.56l.24,2h.11A6.6,6.6,0,0,1,70.9,6.29c3,0,4.45,1.94,4.45,5.37v8.21H72.22v-7.8c0-2.14-.67-3.11-2.48-3.11-1.3,0-2.19.62-3.4,1.86v9.05H63.21Z"/><path d="M78.3,13.23a6.73,6.73,0,0,1,6.85-6.94c3.95,0,6.13,2.62,6.13,6.29a11.45,11.45,0,0,1-.13,1.57H81.4c.35,2.45,2.11,3.64,4.56,3.64a7.2,7.2,0,0,0,3.73-1.11l1,1.95a9.68,9.68,0,0,1-5.18,1.56C81.51,20.19,78.3,17.63,78.3,13.23Zm3.18-1.3h7c-.22-2.16-1.41-3.24-3.3-3.24A3.69,3.69,0,0,0,81.48,11.93Z"/><path d="M94,13.23a6.73,6.73,0,0,1,6.85-6.94c4,0,6.13,2.62,6.13,6.29a11.45,11.45,0,0,1-.13,1.57H97.06c.35,2.45,2.11,3.64,4.56,3.64a7.2,7.2,0,0,0,3.73-1.11l1.05,1.95a9.68,9.68,0,0,1-5.18,1.56C97.17,20.19,94,17.63,94,13.23Zm3.18-1.3h7c-.22-2.16-1.41-3.24-3.29-3.24A3.7,3.7,0,0,0,97.14,11.93Z"/><path d="M109.4,13.25c0-4.31,2.84-7,5.86-7a4.92,4.92,0,0,1,3.64,1.57H119l-.16-2.24V.81H122V19.87h-2.56l-.24-1.54h-.08a6,6,0,0,1-4,1.86C111.67,20.19,109.4,17.63,109.4,13.25ZM118.82,16v-6A4,4,0,0,0,116,8.85c-1.84,0-3.38,1.6-3.38,4.38s1.19,4.4,3.22,4.4A3.87,3.87,0,0,0,118.82,16Z"/><polygon class="cls-1" points="145.41 8.43 140.49 13.09 141.53 19.79 135.58 16.55 129.53 19.61 130.78 12.95 125.99 8.14 132.72 7.26 135.81 1.23 138.72 7.36 145.41 8.43"/></g></g></svg>