<svg xmlns="http://www.w3.org/2000/svg" viewBox="0 0 767.76 106.87"><defs><style>.cls-1{fill:#4eacba;}</style></defs><g id="レイヤー_2" data-name="レイヤー 2"><g id="レイヤー_1-2" data-name="レイヤー 1"><polygon class="cls-1" points="57.69 64.48 17.4 0 0 0 0 81.03 57.69 64.48"/><polygon class="cls-1" points="64.24 62.6 106.87 50.38 106.87 0 25.12 0 64.24 62.6"/><polygon class="cls-1" points="61.3 70.26 0 87.84 0 106.87 84.18 106.87 61.3 70.26"/><polygon class="cls-1" points="67.85 68.38 91.91 106.87 106.87 106.87 106.87 57.19 67.85 68.38"/><path class="cls-1" d="M151.34,67.06l-7.06,19.22h-4.56l20.52-56h5.33l21.4,56h-4.89l-7.22-19.22Zm22.06-4.13c-6.19-16.53-9.38-24.51-10.5-28.3h-.08c-1.36,4.27-4.94,14.16-9.94,28.3Z" transform="translate(-5.46 -4.64)"/><path class="cls-1" d="M194,86.28v-56h6.58c8.68,13.42,29,44.51,32.49,50.59h.08c-.48-8-.4-16.3-.4-25.42V30.29h4.54v56h-6.1C223,73.36,202.31,41,198.33,34.79h-.08c.4,7.3.33,15.53.33,25.69v25.8Z" transform="translate(-5.46 -4.64)"/><path class="cls-1" d="M262.14,34.42H243.38V30.29h42.16v4.13H266.7V86.28h-4.56Z" transform="translate(-5.46 -4.64)"/><path class="cls-1" d="M295.68,30.29v56h-4.49v-56Z" transform="translate(-5.46 -4.64)"/><path class="cls-1" d="M325.05,63.81v4H304.84v-4Z" transform="translate(-5.46 -4.64)"/><path class="cls-1" d="M334.21,30.29h20.06c10.27,0,17.33,5.7,17.33,15.64,0,10.12-7,16-17.88,16h-15V86.28h-4.56Zm4.56,27.55h15.31c9,0,12.72-4.74,12.72-11.75,0-7.48-4.94-11.68-12.41-11.68H338.77Z" transform="translate(-5.46 -4.64)"/><path class="cls-1" d="M379.82,67.06l-7.06,19.22H368.2l20.52-56h5.34l21.4,56h-4.89l-7.22-19.22Zm22.06-4.13c-6.19-16.53-9.37-24.51-10.5-28.3h-.08c-1.36,4.27-4.94,14.16-9.94,28.3Z" transform="translate(-5.46 -4.64)"/><path class="cls-1" d="M426.43,34.42H407.68V30.29h42.15v4.13H431V86.28h-4.56Z" transform="translate(-5.46 -4.64)"/><path class="cls-1" d="M473,34.42H454.24V30.29h42.15v4.13H477.56V86.28H473Z" transform="translate(-5.46 -4.64)"/><path class="cls-1" d="M536,58.84H507.49V82.15h31.23l-.65,4.13H503v-56h34.43v4.13h-30V54.71H536Z" transform="translate(-5.46 -4.64)"/><path class="cls-1" d="M549.71,60.21V86.28h-4.56v-56h20.17c11.06,0,16.92,5.94,16.92,14.73,0,7.13-4.24,11.76-10.43,13.12,5.7,1.36,9.54,5.1,9.54,14.62v2.18c0,3.91-.31,9.17.72,11.34h-4.55c-1-2.4-.8-6.87-.8-11.7V73.16c0-9.14-2.7-12.95-13.38-12.95Zm0-4.12h13.44c9.77,0,14.29-3.66,14.29-11,0-6.83-4.45-10.72-13.11-10.72H549.71Z" transform="translate(-5.46 -4.64)"/><path class="cls-1" d="M589.21,86.28v-56h6.58c8.68,13.42,29,44.51,32.49,50.59h.09c-.49-8-.41-16.3-.41-25.42V30.29h4.54v56h-6.1C618.14,73.36,597.48,41,593.51,34.79h-.08c.4,7.3.32,15.53.32,25.69v25.8Z" transform="translate(-5.46 -4.64)"/><path class="cls-1" d="M664.1,30.29v56h-4.49v-56Z" transform="translate(-5.46 -4.64)"/><path class="cls-1" d="M671.4,86.28v-56H678c8.68,13.42,29,44.51,32.49,50.59h.09c-.49-8-.41-16.3-.41-25.42V30.29h4.54v56H708.6C700.33,73.36,679.67,41,675.7,34.79h-.08c.4,7.3.32,15.53.32,25.69v25.8Z" transform="translate(-5.46 -4.64)"/><path class="cls-1" d="M766.74,71.27c-2.63,8.91-9.22,15.65-21.1,15.65-16.11,0-24.59-12.79-24.59-28.55,0-15.12,8.32-28.88,24.68-28.88,12.13,0,19.25,6.77,21.08,16.12h-4.48c-2.53-7.21-7.21-12-16.85-12-13.83,0-19.62,12.64-19.62,24.67s5.7,24.52,19.94,24.52c9.09,0,13.69-4.73,16.45-11.53Z" transform="translate(-5.46 -4.64)"/><path class="cls-1" d="M769,86.28V75.88h4.18v10.4Z" transform="translate(-5.46 -4.64)"/></g></g></svg>